<?xml version="1.0" encoding="UTF-8" standalone="no"?><!DOCTYPE svg PUBLIC "-//W3C//DTD SVG 1.1//EN" "http://www.w3.org/Graphics/SVG/1.1/DTD/svg11.dtd"><svg width="100%" height="100%" viewBox="0 0 1024 1024" version="1.1" xmlns="http://www.w3.org/2000/svg" xmlns:xlink="http://www.w3.org/1999/xlink" xml:space="preserve" xmlns:serif="http://www.serif.com/" style="fill-rule:evenodd;clip-rule:evenodd;stroke-linejoin:round;stroke-miterlimit:2;"><g id="Sfondo"><path d="M865.031,883.016c-98.713,91.039 -193.994,124.923 -298.572,138.172c-11.047,1.4 -77.504,4.346 -117.9,-1.108c-7.386,-0.997 -244.72,-19.38 -380.576,-252.863c-11.441,-19.662 -66.77,-118.535 -66.956,-240.691c-0.037,-24.268 -10.144,-167.8 96.861,-315.735c28.799,-39.815 64.557,-74.233 82.287,-88.685c13.55,-11.045 135.488,-121.063 322.282,-121.086c9.836,-0.001 247.337,-18.231 416.865,200.605c63.664,82.181 103.302,194.007 103.621,292.849c0.1,31.094 13.657,222.306 -157.913,388.543Z" style="fill:#292b2c;fill-opacity:1;"/><path d="M355.206,377.393c2.445,-6.721 63.553,-176.955 68.103,-189.961c10.061,-28.758 9.797,-30.859 12.047,-29.64c0.474,0.257 310.565,344.579 316.257,350.615c1.919,2.035 0.638,2.662 -2.092,3.195c-58.126,11.343 -58.133,11.566 -59.128,11.306c-1.944,-0.509 -130.384,-143.836 -152.35,-167.981c-79.336,-87.207 -79.441,-89.103 -80.802,-87.821c-1.896,1.788 -1.384,2.049 -11.266,30.567c-1.64,4.734 0.961,4.399 30.094,37.223c67.933,76.541 68.823,75.641 137.009,151.984c38.263,42.84 38.749,42.881 38.438,43.629c-0.449,1.078 -57.54,11.813 -57.967,11.7c-2.323,-0.612 -106.596,-117.456 -134.55,-148.242c-32.084,-35.334 -33.4,-39.374 -34.794,-35.641c-13.527,36.225 -13.288,37.058 -11.183,39.587c0.972,1.168 134.181,148.787 135.705,150.39c1.579,1.661 2.017,2.687 -0.244,3.145c-4.152,0.842 -46.396,9.413 -51.95,10.306c-2.564,0.412 -2.465,-0.515 -24.004,-24.281c-9.926,-10.952 -94.439,-104.206 -123.7,-137.241c-1.639,-1.851 -0.219,-4.521 6.377,-22.839Z" style="fill:#fefefe;"/><path d="M858.597,661.993c-35.992,7.136 -449.035,89.031 -450.051,88.418c-1.591,-0.96 7.969,-24.269 26.141,-75.842c1.927,-5.47 23.084,-65.511 24.706,-68.149c0.459,-0.746 0.623,-0.775 82.072,-17.094c19.186,-3.844 237.136,-47.514 240.055,-46.911c2.548,0.526 31.858,34.396 34.526,37.479c1.152,1.331 4.243,4.308 1.558,4.868c-26.275,5.479 -193.369,38.06 -210.189,41.34c-102.141,19.916 -102.119,20.353 -102.498,20.76c-0.022,0.023 -13.977,36.174 -13.055,37.31c0.877,1.081 54.225,-10.565 96.668,-18.519c15.066,-2.823 14.877,-3.454 187.943,-37.292c5.525,-1.08 69.03,-13.497 69.064,-13.5c2.748,-0.308 2.397,0.923 23.621,23.948c15.198,16.487 15.99,17.844 14.209,18.372c-1.935,0.574 -2.013,0.065 -24.769,4.813Z" style="fill:#fefefe;"/><path d="M244.59,782.993c-35.127,7.272 -37.735,8.398 -36.902,5.531c1.573,-5.409 54.521,-151.666 59.292,-164.844c1.505,-4.157 3.389,-0.245 3.972,0.407c39.616,44.307 42.102,44.035 40.594,48.428c-6.993,20.365 -18.324,49.754 -17.633,50.663c0.094,0.123 0.209,0.466 23.514,-4.088c3.844,-0.751 9.366,-0.713 10.8,-4.693c1.493,-4.144 18.61,-51.671 18.649,-51.804c1.232,-4.104 -2.519,-2.674 -34.801,-40.716c-8.287,-9.766 -31.816,-33.462 -31.448,-36.357c0.111,-0.873 49.249,-137.18 51.594,-144.119c1.976,-5.846 3.808,-1.707 5.365,0.021c5.916,6.564 69.286,76.869 74.026,81.977c2.425,2.613 29.034,31.287 29.769,33.16c1.318,3.36 -0.101,3.439 -14.295,42.789c-2.926,8.112 -4.368,14.451 -6.884,11.472c-4.649,-5.504 -4.935,-5.143 -60.397,-66.797c-1.813,-2.015 -2.911,1.694 -9.541,20.392c-3.969,11.193 -5.909,13.421 -3.235,16.519c10.489,12.152 61.283,66.874 61.583,68.542c0.222,1.236 -38.134,107.739 -39.398,108.634c-1.515,1.073 -112.994,22.491 -124.624,24.881Z" style="fill:#fefefe;"/></g></svg>